<svg width="265" height="130" viewBox="0 0 265 130" fill="none" xmlns="http://www.w3.org/2000/svg">
<g filter="url(#filter0_d_1_1288)">
<rect x="25" y="24" width="215" height="80" rx="16" fill="white" shape-rendering="crispEdges"/>
<rect x="41" y="40" width="48" height="48" rx="8" fill="#605EFB" fill-opacity="0.1"/>
<path d="M59.6001 73H58.4001C58.1614 73 57.9325 72.9052 57.7637 72.7364C57.5949 72.5676 57.5001 72.3387 57.5001 72.1V66.7C57.5001 66.4613 57.5949 66.2324 57.7637 66.0636C57.9325 65.8948 58.1614 65.8 58.4001 65.8H59.6001C59.8388 65.8 60.0677 65.8948 60.2365 66.0636C60.4053 66.2324 60.5001 66.4613 60.5001 66.7V72.1C60.5001 72.3387 60.4053 72.5676 60.2365 72.7364C60.0677 72.9052 59.8388 73 59.6001 73ZM68.0001 73H66.8001C66.5614 73 66.3325 72.9052 66.1637 72.7364C65.9949 72.5676 65.9001 72.3387 65.9001 72.1V63.1C65.9001 62.8613 65.9949 62.6324 66.1637 62.4636C66.3325 62.2948 66.5614 62.2 66.8001 62.2H68.0001C68.2388 62.2 68.4677 62.2948 68.6365 62.4636C68.8053 62.6324 68.9001 62.8613 68.9001 63.1V72.1C68.9001 72.3387 68.8053 72.5676 68.6365 72.7364C68.4677 72.9052 68.2388 73 68.0001 73ZM72.2001 73H71.0001C70.7614 73 70.5325 72.9052 70.3637 72.7364C70.1949 72.5676 70.1001 72.3387 70.1001 72.1V58.9C70.1001 58.6613 70.1949 58.4324 70.3637 58.2636C70.5325 58.0948 70.7614 58 71.0001 58H72.2001C72.4388 58 72.6677 58.0948 72.8365 58.2636C73.0053 58.4324 73.1001 58.6613 73.1001 58.9V72.1C73.1001 72.3387 73.0053 72.5676 72.8365 72.7364C72.6677 72.9052 72.4388 73 72.2001 73ZM63.8001 73H62.6001C62.3614 73 62.1325 72.9052 61.9637 72.7364C61.7949 72.5676 61.7001 72.3387 61.7001 72.1V55.9C61.7001 55.6613 61.7949 55.4324 61.9637 55.2636C62.1325 55.0948 62.3614 55 62.6001 55H63.8001C64.0388 55 64.2677 55.0948 64.4365 55.2636C64.6053 55.4324 64.7001 55.6613 64.7001 55.9V72.1C64.7001 72.3387 64.6053 72.5676 64.4365 72.7364C64.2677 72.9052 64.0388 73 63.8001 73Z" fill="#605EFB"/>
<path d="M107.624 62.5H106.152V51.044H107.624V62.5ZM109.677 54.66H111.085V55.748H111.149C111.373 55.364 111.715 55.044 112.173 54.788C112.643 54.532 113.128 54.404 113.629 54.404C114.589 54.404 115.325 54.6813 115.837 55.236C116.36 55.78 116.621 56.5587 116.621 57.572V62.5H115.149V57.668C115.117 56.388 114.472 55.748 113.213 55.748C112.627 55.748 112.136 55.988 111.741 56.468C111.347 56.9373 111.149 57.5027 111.149 58.164V62.5H109.677V54.66ZM121.845 62.5H120.373L117.205 54.66H118.805L121.109 60.74H121.141L123.477 54.66H125.045L121.845 62.5ZM129.291 62.756C128.139 62.756 127.19 62.3613 126.443 61.572C125.696 60.7827 125.323 59.7853 125.323 58.58C125.323 57.3853 125.686 56.3933 126.411 55.604C127.136 54.804 128.064 54.404 129.195 54.404C130.358 54.404 131.28 54.7827 131.963 55.54C132.656 56.2867 133.003 57.3373 133.003 58.692L132.987 58.852H126.827C126.848 59.62 127.104 60.2387 127.595 60.708C128.086 61.1773 128.672 61.412 129.355 61.412C130.294 61.412 131.03 60.9427 131.563 60.004L132.875 60.644C132.523 61.3053 132.032 61.8227 131.403 62.196C130.784 62.5693 130.08 62.756 129.291 62.756ZM126.939 57.636H131.435C131.392 57.092 131.168 56.644 130.763 56.292C130.368 55.9293 129.835 55.748 129.163 55.748C128.608 55.748 128.128 55.9187 127.723 56.26C127.328 56.6013 127.067 57.06 126.939 57.636ZM140.427 60.324C140.427 61.0067 140.129 61.5827 139.531 62.052C138.934 62.5213 138.182 62.756 137.275 62.756C136.486 62.756 135.793 62.5533 135.195 62.148C134.598 61.732 134.171 61.188 133.915 60.516L135.227 59.956C135.419 60.4253 135.697 60.7933 136.059 61.06C136.433 61.316 136.838 61.444 137.275 61.444C137.745 61.444 138.134 61.3427 138.443 61.14C138.763 60.9373 138.923 60.6973 138.923 60.42C138.923 59.9187 138.539 59.5507 137.771 59.316L136.427 58.98C134.902 58.596 134.139 57.86 134.139 56.772C134.139 56.0573 134.427 55.4867 135.003 55.06C135.59 54.6227 136.337 54.404 137.243 54.404C137.937 54.404 138.561 54.5693 139.115 54.9C139.681 55.2307 140.075 55.6733 140.299 56.228L138.987 56.772C138.838 56.4413 138.593 56.1853 138.251 56.004C137.921 55.812 137.547 55.716 137.131 55.716C136.747 55.716 136.401 55.812 136.091 56.004C135.793 56.196 135.643 56.4307 135.643 56.708C135.643 57.156 136.065 57.476 136.907 57.668L138.091 57.972C139.649 58.356 140.427 59.14 140.427 60.324ZM144.734 62.628C144.094 62.628 143.561 62.4307 143.134 62.036C142.718 61.6413 142.505 61.092 142.494 60.388V56.004H141.118V54.66H142.494V52.26H143.966V54.66H145.886V56.004H143.966V59.908C143.966 60.4307 144.068 60.788 144.27 60.98C144.473 61.1613 144.702 61.252 144.958 61.252C145.076 61.252 145.188 61.2413 145.294 61.22C145.412 61.188 145.518 61.1507 145.614 61.108L146.078 62.42C145.694 62.5587 145.246 62.628 144.734 62.628ZM148.837 62.5H147.365V54.66H148.773V55.748H148.837C149.061 55.364 149.402 55.044 149.861 54.788C150.33 54.532 150.794 54.404 151.253 54.404C151.829 54.404 152.335 54.5373 152.773 54.804C153.21 55.0707 153.53 55.4387 153.733 55.908C154.383 54.9053 155.285 54.404 156.437 54.404C157.343 54.404 158.042 54.6813 158.533 55.236C159.023 55.7907 159.269 56.58 159.269 57.604V62.5H157.797V57.828C157.797 57.092 157.663 56.564 157.397 56.244C157.13 55.9133 156.682 55.748 156.053 55.748C155.487 55.748 155.013 55.988 154.629 56.468C154.245 56.948 154.053 57.5133 154.053 58.164V62.5H152.581V57.828C152.581 57.092 152.447 56.564 152.181 56.244C151.914 55.9133 151.466 55.748 150.837 55.748C150.271 55.748 149.797 55.988 149.413 56.468C149.029 56.948 148.837 57.5133 148.837 58.164V62.5ZM164.51 62.756C163.358 62.756 162.408 62.3613 161.662 61.572C160.915 60.7827 160.542 59.7853 160.542 58.58C160.542 57.3853 160.904 56.3933 161.63 55.604C162.355 54.804 163.283 54.404 164.414 54.404C165.576 54.404 166.499 54.7827 167.182 55.54C167.875 56.2867 168.222 57.3373 168.222 58.692L168.206 58.852H162.046C162.067 59.62 162.323 60.2387 162.814 60.708C163.304 61.1773 163.891 61.412 164.574 61.412C165.512 61.412 166.248 60.9427 166.782 60.004L168.094 60.644C167.742 61.3053 167.251 61.8227 166.622 62.196C166.003 62.5693 165.299 62.756 164.51 62.756ZM162.158 57.636H166.654C166.611 57.092 166.387 56.644 165.982 56.292C165.587 55.9293 165.054 55.748 164.382 55.748C163.827 55.748 163.347 55.9187 162.942 56.26C162.547 56.6013 162.286 57.06 162.158 57.636ZM169.568 54.66H170.976V55.748H171.04C171.264 55.364 171.605 55.044 172.064 54.788C172.533 54.532 173.019 54.404 173.52 54.404C174.48 54.404 175.216 54.6813 175.728 55.236C176.251 55.78 176.512 56.5587 176.512 57.572V62.5H175.04V57.668C175.008 56.388 174.363 55.748 173.104 55.748C172.517 55.748 172.027 55.988 171.632 56.468C171.237 56.9373 171.04 57.5027 171.04 58.164V62.5H169.568V54.66ZM180.938 62.628C180.298 62.628 179.764 62.4307 179.338 62.036C178.922 61.6413 178.708 61.092 178.698 60.388V56.004H177.322V54.66H178.698V52.26H180.17V54.66H182.09V56.004H180.17V59.908C180.17 60.4307 180.271 60.788 180.474 60.98C180.676 61.1613 180.906 61.252 181.161 61.252C181.279 61.252 181.391 61.2413 181.498 61.22C181.615 61.188 181.722 61.1507 181.818 61.108L182.282 62.42C181.898 62.5587 181.45 62.628 180.938 62.628ZM189.646 60.324C189.646 61.0067 189.347 61.5827 188.75 62.052C188.153 62.5213 187.401 62.756 186.494 62.756C185.705 62.756 185.011 62.5533 184.414 62.148C183.817 61.732 183.39 61.188 183.134 60.516L184.446 59.956C184.638 60.4253 184.915 60.7933 185.278 61.06C185.651 61.316 186.057 61.444 186.494 61.444C186.963 61.444 187.353 61.3427 187.662 61.14C187.982 60.9373 188.142 60.6973 188.142 60.42C188.142 59.9187 187.758 59.5507 186.99 59.316L185.646 58.98C184.121 58.596 183.358 57.86 183.358 56.772C183.358 56.0573 183.646 55.4867 184.222 55.06C184.809 54.6227 185.555 54.404 186.462 54.404C187.155 54.404 187.779 54.5693 188.334 54.9C188.899 55.2307 189.294 55.6733 189.518 56.228L188.206 56.772C188.057 56.4413 187.811 56.1853 187.47 56.004C187.139 55.812 186.766 55.716 186.35 55.716C185.966 55.716 185.619 55.812 185.31 56.004C185.011 56.196 184.862 56.4307 184.862 56.708C184.862 57.156 185.283 57.476 186.126 57.668L187.31 57.972C188.867 58.356 189.646 59.14 189.646 60.324Z" fill="#172E80"/>
<rect x="105" y="74.5" width="119" height="6" rx="3" fill="#EAEAEA"/>
<rect x="105" y="74.5" width="100" height="6" rx="3" fill="#605EFB"/>
</g>
<defs>
<filter id="filter0_d_1_1288" x="0" y="0" width="265" height="130" filterUnits="userSpaceOnUse" color-interpolation-filters="sRGB">
<feFlood flood-opacity="0" result="BackgroundImageFix"/>
<feColorMatrix in="SourceAlpha" type="matrix" values="0 0 0 0 0 0 0 0 0 0 0 0 0 0 0 0 0 0 127 0" result="hardAlpha"/>
<feOffset dy="1"/>
<feGaussianBlur stdDeviation="12.5"/>
<feComposite in2="hardAlpha" operator="out"/>
<feColorMatrix type="matrix" values="0 0 0 0 0.376471 0 0 0 0 0.368627 0 0 0 0 0.984314 0 0 0 0.15 0"/>
<feBlend mode="normal" in2="BackgroundImageFix" result="effect1_dropShadow_1_1288"/>
<feBlend mode="normal" in="SourceGraphic" in2="effect1_dropShadow_1_1288" result="shape"/>
</filter>
</defs>
</svg>
