<svg width="263" height="128" viewBox="0 0 263 128" fill="none" xmlns="http://www.w3.org/2000/svg">
<g filter="url(#filter0_d_1_1274)">
<rect x="24" y="23" width="215" height="80" rx="16" fill="white" shape-rendering="crispEdges"/>
<rect x="40" y="39" width="48" height="48" rx="8" fill="#FF61EF" fill-opacity="0.1"/>
<path d="M70.6585 61.8806C71.5371 61.2792 72.183 60.3948 72.4884 59.3749C72.5815 59.5015 72.669 59.6327 72.7509 59.7686C73.3131 60.6985 73.6156 61.8201 73.6156 63.1567C73.6156 65.2109 72.8403 66.6471 72.0519 67.5676C71.6925 67.9868 71.2794 68.3567 70.8233 68.6678V70.3702C70.8234 70.5842 70.7813 70.7961 70.6995 70.9938C70.6177 71.1916 70.4978 71.3712 70.3465 71.5226C70.1952 71.6739 70.0156 71.794 69.818 71.8759C69.6203 71.9578 69.4084 72 69.1944 72H68.0309C67.6606 72 67.3055 71.8529 67.0437 71.5911C66.7818 71.3292 66.6348 70.9741 66.6348 70.6038H64.7732C64.7732 70.9741 64.6261 71.3292 64.3643 71.5911C64.1024 71.8529 63.7473 72 63.377 72H62.2135C61.7815 72 61.3672 71.8284 61.0618 71.5229C60.7563 71.2174 60.5847 70.8031 60.5847 70.3711V69.7354C60.4388 69.6862 60.2948 69.6319 60.1528 69.5725C59.4361 69.2779 58.7831 68.8474 58.2298 68.3048C57.6443 67.7143 57.1417 67.0471 56.7359 66.3213C56.7057 66.2612 56.6626 66.2085 56.6097 66.1669C56.5567 66.1254 56.4953 66.0961 56.4297 66.0812C56.0302 66.0146 55.6673 65.8085 55.4055 65.4995C55.1437 65.1905 55 64.7987 55 64.3937V62.762C55 61.9774 55.5678 61.3081 56.3403 61.1797C56.4213 61.1657 56.5414 61.0847 56.5981 60.9153C56.7769 60.3783 57.124 59.5806 57.7644 58.9402C58.2259 58.4879 58.7448 58.098 59.3077 57.7805C59.4342 57.7079 59.5515 57.6455 59.6539 57.5943V54.9388C59.6539 54.0657 60.7057 53.7074 61.2735 54.2724C61.5806 54.5786 62.0274 54.9863 62.5216 55.3279C63.0149 55.6685 63.4869 55.8929 63.875 55.9422C63.4147 56.8546 63.2675 57.8931 63.4561 58.8974C63.6246 59.7882 64.3069 60.3513 64.9472 60.6175L68.3874 62.0416C69.0287 62.3069 69.9083 62.3916 70.6585 61.8806ZM60.5847 61.7605C60.8315 61.7605 61.0683 61.6624 61.2428 61.4879C61.4174 61.3133 61.5155 61.0766 61.5155 60.8297C61.5155 60.5829 61.4174 60.3461 61.2428 60.1715C61.0683 59.997 60.8315 59.8989 60.5847 59.8989C60.3378 59.8989 60.1011 59.997 59.9265 60.1715C59.752 60.3461 59.6539 60.5829 59.6539 60.8297C59.6539 61.0766 59.752 61.3133 59.9265 61.4879C60.1011 61.6624 60.3378 61.7605 60.5847 61.7605ZM70.1336 61.1117C70.5654 60.816 70.9301 60.4327 71.204 59.9867C71.4779 59.5407 71.6548 59.0421 71.7233 58.5232C71.7927 57.9897 71.7455 57.4474 71.5852 56.9338C71.4248 56.4202 71.155 55.9474 70.7944 55.5481C70.4338 55.1488 69.9909 54.8323 69.4962 54.6206C69.0016 54.4089 68.4669 54.3069 67.929 54.3217C67.3912 54.3365 66.8629 54.4677 66.3806 54.7062C65.8983 54.9448 65.4734 55.285 65.1353 55.7036C64.7971 56.1221 64.5537 56.6089 64.4218 57.1306C64.2899 57.6522 64.2726 58.1962 64.3711 58.7252C64.3944 58.8462 64.4353 58.9598 64.4921 59.065C64.5386 59.1515 64.5945 59.2325 64.6596 59.307C64.829 59.5024 65.0561 59.6551 65.3037 59.7584L68.7439 61.1825C69.2 61.3714 69.7259 61.39 70.1336 61.1117Z" fill="#FF61EF"/>
<path d="M112.224 58.444C112.224 59.4467 111.856 60.252 111.12 60.86C110.373 61.4573 109.467 61.756 108.4 61.756C107.451 61.756 106.613 61.4787 105.888 60.924C105.163 60.3693 104.661 59.612 104.384 58.652L105.792 58.076C105.888 58.4173 106.021 58.7267 106.192 59.004C106.363 59.2813 106.56 59.5213 106.784 59.724C107.019 59.916 107.275 60.0707 107.552 60.188C107.829 60.2947 108.123 60.348 108.432 60.348C109.104 60.348 109.653 60.1773 110.08 59.836C110.507 59.484 110.72 59.02 110.72 58.444C110.72 57.964 110.544 57.5533 110.192 57.212C109.861 56.8813 109.243 56.5613 108.336 56.252C107.419 55.9213 106.848 55.6973 106.624 55.58C105.408 54.9613 104.8 54.0493 104.8 52.844C104.8 52.0013 105.136 51.2813 105.808 50.684C106.491 50.0867 107.328 49.788 108.32 49.788C109.195 49.788 109.952 50.012 110.592 50.46C111.232 50.8973 111.659 51.4467 111.872 52.108L110.496 52.684C110.368 52.2573 110.112 51.9053 109.728 51.628C109.355 51.34 108.896 51.196 108.352 51.196C107.776 51.196 107.291 51.356 106.896 51.676C106.501 51.9747 106.304 52.364 106.304 52.844C106.304 53.2387 106.459 53.58 106.768 53.868C107.109 54.156 107.851 54.4973 108.992 54.892C110.155 55.2867 110.981 55.772 111.472 56.348C111.973 56.9133 112.224 57.612 112.224 58.444ZM114.812 59.1C114.812 59.484 114.972 59.804 115.292 60.06C115.622 60.316 116.006 60.444 116.444 60.444C117.062 60.444 117.612 60.2147 118.092 59.756C118.582 59.2973 118.828 58.7587 118.828 58.14C118.369 57.7773 117.729 57.596 116.908 57.596C116.31 57.596 115.809 57.74 115.404 58.028C115.009 58.316 114.812 58.6733 114.812 59.1ZM116.716 53.404C117.804 53.404 118.662 53.6973 119.292 54.284C119.921 54.86 120.236 55.6547 120.236 56.668V61.5H118.828V60.412H118.764C118.156 61.308 117.345 61.756 116.332 61.756C115.468 61.756 114.742 61.5 114.156 60.988C113.58 60.476 113.292 59.836 113.292 59.068C113.292 58.2573 113.596 57.612 114.204 57.132C114.822 56.652 115.644 56.412 116.668 56.412C117.542 56.412 118.262 56.572 118.828 56.892V56.556C118.828 56.044 118.625 55.612 118.22 55.26C117.814 54.8973 117.34 54.716 116.796 54.716C115.974 54.716 115.324 55.0627 114.844 55.756L113.548 54.94C114.262 53.916 115.318 53.404 116.716 53.404ZM125.548 61.5H124.076L120.908 53.66H122.508L124.812 59.74H124.844L127.18 53.66H128.748L125.548 61.5ZM131.613 50.956C131.613 51.244 131.511 51.4893 131.309 51.692C131.106 51.8947 130.861 51.996 130.573 51.996C130.285 51.996 130.039 51.8947 129.837 51.692C129.634 51.4893 129.533 51.244 129.533 50.956C129.533 50.668 129.634 50.4227 129.837 50.22C130.039 50.0173 130.285 49.916 130.573 49.916C130.861 49.916 131.106 50.0173 131.309 50.22C131.511 50.4227 131.613 50.668 131.613 50.956ZM131.309 53.66V61.5H129.837V53.66H131.309ZM133.224 53.66H134.632V54.748H134.696C134.92 54.364 135.261 54.044 135.72 53.788C136.189 53.532 136.675 53.404 137.176 53.404C138.136 53.404 138.872 53.6813 139.384 54.236C139.907 54.78 140.168 55.5587 140.168 56.572V61.5H138.696V56.668C138.664 55.388 138.019 54.748 136.76 54.748C136.173 54.748 135.683 54.988 135.288 55.468C134.893 55.9373 134.696 56.5027 134.696 57.164V61.5H133.224V53.66ZM145.338 60.412C146.063 60.412 146.655 60.1507 147.114 59.628C147.594 59.1053 147.834 58.4227 147.834 57.58C147.834 56.7587 147.594 56.0813 147.114 55.548C146.645 55.0147 146.053 54.748 145.338 54.748C144.634 54.748 144.042 55.0147 143.562 55.548C143.082 56.0813 142.842 56.7587 142.842 57.58C142.842 58.412 143.082 59.0893 143.562 59.612C144.042 60.1453 144.634 60.412 145.338 60.412ZM145.29 65.212C144.853 65.212 144.442 65.1533 144.058 65.036C143.674 64.9293 143.322 64.7747 143.002 64.572C142.693 64.3693 142.426 64.1293 142.202 63.852C141.978 63.5747 141.807 63.2653 141.69 62.924L143.082 62.348C143.242 62.8067 143.519 63.1747 143.914 63.452C144.309 63.7293 144.767 63.868 145.29 63.868C146.09 63.868 146.714 63.628 147.162 63.148C147.61 62.668 147.834 62.0067 147.834 61.164V60.412H147.77C147.493 60.828 147.114 61.1587 146.634 61.404C146.165 61.6387 145.653 61.756 145.098 61.756C144.074 61.756 143.194 61.356 142.458 60.556C141.733 59.7347 141.37 58.7427 141.37 57.58C141.37 56.4173 141.733 55.4307 142.458 54.62C143.194 53.8093 144.074 53.404 145.098 53.404C145.653 53.404 146.165 53.5267 146.634 53.772C147.114 54.0067 147.493 54.332 147.77 54.748H147.834V53.66H149.242V61.164C149.242 62.4227 148.885 63.4093 148.17 64.124C147.445 64.8493 146.485 65.212 145.29 65.212ZM156.959 59.324C156.959 60.0067 156.66 60.5827 156.063 61.052C155.465 61.5213 154.713 61.756 153.807 61.756C153.017 61.756 152.324 61.5533 151.727 61.148C151.129 60.732 150.703 60.188 150.447 59.516L151.759 58.956C151.951 59.4253 152.228 59.7933 152.591 60.06C152.964 60.316 153.369 60.444 153.807 60.444C154.276 60.444 154.665 60.3427 154.975 60.14C155.295 59.9373 155.455 59.6973 155.455 59.42C155.455 58.9187 155.071 58.5507 154.303 58.316L152.959 57.98C151.433 57.596 150.671 56.86 150.671 55.772C150.671 55.0573 150.959 54.4867 151.535 54.06C152.121 53.6227 152.868 53.404 153.775 53.404C154.468 53.404 155.092 53.5693 155.647 53.9C156.212 54.2307 156.607 54.6733 156.831 55.228L155.519 55.772C155.369 55.4413 155.124 55.1853 154.783 55.004C154.452 54.812 154.079 54.716 153.663 54.716C153.279 54.716 152.932 54.812 152.623 55.004C152.324 55.196 152.174 55.4307 152.174 55.708C152.174 56.156 152.596 56.476 153.439 56.668L154.623 56.972C156.18 57.356 156.959 58.14 156.959 59.324Z" fill="#172E80"/>
<rect x="104" y="73.5" width="119" height="6" rx="3" fill="#EAEAEA"/>
<rect x="104" y="73.5" width="40" height="6" rx="3" fill="#FF61EF"/>
</g>
<defs>
<filter id="filter0_d_1_1274" x="0" y="0" width="263" height="128" filterUnits="userSpaceOnUse" color-interpolation-filters="sRGB">
<feFlood flood-opacity="0" result="BackgroundImageFix"/>
<feColorMatrix in="SourceAlpha" type="matrix" values="0 0 0 0 0 0 0 0 0 0 0 0 0 0 0 0 0 0 127 0" result="hardAlpha"/>
<feOffset dy="1"/>
<feGaussianBlur stdDeviation="12"/>
<feComposite in2="hardAlpha" operator="out"/>
<feColorMatrix type="matrix" values="0 0 0 0 1 0 0 0 0 0.380392 0 0 0 0 0.937255 0 0 0 0.15 0"/>
<feBlend mode="normal" in2="BackgroundImageFix" result="effect1_dropShadow_1_1274"/>
<feBlend mode="normal" in="SourceGraphic" in2="effect1_dropShadow_1_1274" result="shape"/>
</filter>
</defs>
</svg>
