<svg width="263" height="128" viewBox="0 0 263 128" fill="none" xmlns="http://www.w3.org/2000/svg">
<g filter="url(#filter0_d_1_1281)">
<rect x="24" y="23" width="215" height="80" rx="16" fill="white" shape-rendering="crispEdges"/>
<rect x="40" y="39" width="48" height="48" rx="8" fill="#5BCDF0" fill-opacity="0.1"/>
<path d="M74.2383 55.3992L68.0668 71.3423C68.0058 71.5002 67.9067 71.6406 67.7784 71.751C67.65 71.8615 67.4964 71.9385 67.3312 71.9754C67.166 72.0122 66.9942 72.0077 66.8311 71.9622C66.668 71.9167 66.5187 71.8317 66.3964 71.7147L62.9177 68.3872L60.7844 70.5194C60.7124 70.5912 60.6208 70.64 60.5211 70.6597C60.4214 70.6795 60.318 70.6692 60.2242 70.6302C60.1303 70.5913 60.0501 70.5254 59.9936 70.4408C59.9372 70.3563 59.907 70.257 59.907 70.1553V65.5071L54.5676 60.4002C54.4351 60.2734 54.3389 60.1136 54.289 59.9372C54.239 59.7608 54.2371 59.5742 54.2835 59.3968C54.3299 59.2194 54.4228 59.0577 54.5527 58.9283C54.6826 58.7989 54.8447 58.7065 55.0222 58.6608L73.0225 54.0322C73.2055 53.9853 73.3979 53.9897 73.5786 54.045C73.7592 54.1002 73.9212 54.2041 74.0467 54.3453C74.1722 54.4866 74.2563 54.6596 74.29 54.8455C74.3236 55.0314 74.3054 55.2229 74.2373 55.3992H74.2383ZM71.7358 56.5718L60.4542 63.9272L62.2388 65.6347L71.7358 56.5718Z" fill="#5BCDF0"/>
<path d="M106.624 56.86V61.5H105.152V50.044H109.056C110.048 50.044 110.891 50.3747 111.584 51.036C112.288 51.6973 112.64 52.5027 112.64 53.452C112.64 54.4227 112.288 55.2333 111.584 55.884C110.901 56.5347 110.059 56.86 109.056 56.86H106.624ZM106.624 51.452V55.452H109.088C109.675 55.452 110.16 55.2547 110.544 54.86C110.939 54.4653 111.136 53.996 111.136 53.452C111.136 52.9187 110.939 52.4547 110.544 52.06C110.16 51.6547 109.675 51.452 109.088 51.452H106.624ZM114.687 59.1C114.687 59.484 114.847 59.804 115.167 60.06C115.497 60.316 115.881 60.444 116.319 60.444C116.937 60.444 117.487 60.2147 117.967 59.756C118.457 59.2973 118.703 58.7587 118.703 58.14C118.244 57.7773 117.604 57.596 116.783 57.596C116.185 57.596 115.684 57.74 115.279 58.028C114.884 58.316 114.687 58.6733 114.687 59.1ZM116.591 53.404C117.679 53.404 118.537 53.6973 119.167 54.284C119.796 54.86 120.111 55.6547 120.111 56.668V61.5H118.703V60.412H118.639C118.031 61.308 117.22 61.756 116.207 61.756C115.343 61.756 114.617 61.5 114.031 60.988C113.455 60.476 113.167 59.836 113.167 59.068C113.167 58.2573 113.471 57.612 114.079 57.132C114.697 56.652 115.519 56.412 116.543 56.412C117.417 56.412 118.137 56.572 118.703 56.892V56.556C118.703 56.044 118.5 55.612 118.095 55.26C117.689 54.8973 117.215 54.716 116.671 54.716C115.849 54.716 115.199 55.0627 114.719 55.756L113.423 54.94C114.137 53.916 115.193 53.404 116.591 53.404ZM128.623 53.66L123.711 64.956H122.191L124.015 61.004L120.783 53.66H122.383L124.719 59.292H124.751L127.023 53.66H128.623ZM131.056 61.5H129.584V53.66H130.992V54.748H131.056C131.28 54.364 131.621 54.044 132.08 53.788C132.549 53.532 133.013 53.404 133.472 53.404C134.048 53.404 134.554 53.5373 134.992 53.804C135.429 54.0707 135.749 54.4387 135.952 54.908C136.602 53.9053 137.504 53.404 138.656 53.404C139.562 53.404 140.261 53.6813 140.752 54.236C141.242 54.7907 141.488 55.58 141.488 56.604V61.5H140.016V56.828C140.016 56.092 139.882 55.564 139.616 55.244C139.349 54.9133 138.901 54.748 138.272 54.748C137.706 54.748 137.232 54.988 136.848 55.468C136.464 55.948 136.272 56.5133 136.272 57.164V61.5H134.8V56.828C134.8 56.092 134.666 55.564 134.4 55.244C134.133 54.9133 133.685 54.748 133.056 54.748C132.49 54.748 132.016 54.988 131.632 55.468C131.248 55.948 131.056 56.5133 131.056 57.164V61.5ZM146.729 61.756C145.577 61.756 144.627 61.3613 143.881 60.572C143.134 59.7827 142.761 58.7853 142.761 57.58C142.761 56.3853 143.123 55.3933 143.849 54.604C144.574 53.804 145.502 53.404 146.633 53.404C147.795 53.404 148.718 53.7827 149.401 54.54C150.094 55.2867 150.441 56.3373 150.441 57.692L150.425 57.852H144.265C144.286 58.62 144.542 59.2387 145.033 59.708C145.523 60.1773 146.11 60.412 146.793 60.412C147.731 60.412 148.467 59.9427 149.001 59.004L150.312 59.644C149.961 60.3053 149.47 60.8227 148.841 61.196C148.222 61.5693 147.518 61.756 146.729 61.756ZM144.377 56.636H148.873C148.83 56.092 148.606 55.644 148.201 55.292C147.806 54.9293 147.273 54.748 146.601 54.748C146.046 54.748 145.566 54.9187 145.161 55.26C144.766 55.6013 144.505 56.06 144.377 56.636ZM151.787 53.66H153.195V54.748H153.259C153.483 54.364 153.824 54.044 154.283 53.788C154.752 53.532 155.237 53.404 155.739 53.404C156.699 53.404 157.435 53.6813 157.947 54.236C158.469 54.78 158.731 55.5587 158.731 56.572V61.5H157.259V56.668C157.227 55.388 156.581 54.748 155.323 54.748C154.736 54.748 154.245 54.988 153.851 55.468C153.456 55.9373 153.259 56.5027 153.259 57.164V61.5H151.787V53.66ZM163.156 61.628C162.516 61.628 161.983 61.4307 161.556 61.036C161.14 60.6413 160.927 60.092 160.916 59.388V55.004H159.54V53.66H160.916V51.26H162.388V53.66H164.308V55.004H162.388V58.908C162.388 59.4307 162.49 59.788 162.692 59.98C162.895 60.1613 163.124 60.252 163.38 60.252C163.498 60.252 163.61 60.2413 163.716 60.22C163.834 60.188 163.94 60.1507 164.036 60.108L164.5 61.42C164.116 61.5587 163.668 61.628 163.156 61.628ZM171.865 59.324C171.865 60.0067 171.566 60.5827 170.969 61.052C170.371 61.5213 169.619 61.756 168.713 61.756C167.923 61.756 167.23 61.5533 166.633 61.148C166.035 60.732 165.609 60.188 165.353 59.516L166.665 58.956C166.857 59.4253 167.134 59.7933 167.497 60.06C167.87 60.316 168.275 60.444 168.713 60.444C169.182 60.444 169.571 60.3427 169.881 60.14C170.201 59.9373 170.361 59.6973 170.361 59.42C170.361 58.9187 169.977 58.5507 169.209 58.316L167.865 57.98C166.339 57.596 165.577 56.86 165.577 55.772C165.577 55.0573 165.865 54.4867 166.441 54.06C167.027 53.6227 167.774 53.404 168.681 53.404C169.374 53.404 169.998 53.5693 170.553 53.9C171.118 54.2307 171.513 54.6733 171.737 55.228L170.425 55.772C170.275 55.4413 170.03 55.1853 169.689 55.004C169.358 54.812 168.985 54.716 168.569 54.716C168.185 54.716 167.838 54.812 167.529 55.004C167.23 55.196 167.081 55.4307 167.081 55.708C167.081 56.156 167.502 56.476 168.345 56.668L169.529 56.972C171.086 57.356 171.865 58.14 171.865 59.324Z" fill="#172E80"/>
<rect x="104" y="73.5" width="119" height="6" rx="3" fill="#EAEAEA"/>
<rect x="104" y="73.5" width="100" height="6" rx="3" fill="#5BCDF0"/>
</g>
<defs>
<filter id="filter0_d_1_1281" x="0" y="0" width="263" height="128" filterUnits="userSpaceOnUse" color-interpolation-filters="sRGB">
<feFlood flood-opacity="0" result="BackgroundImageFix"/>
<feColorMatrix in="SourceAlpha" type="matrix" values="0 0 0 0 0 0 0 0 0 0 0 0 0 0 0 0 0 0 127 0" result="hardAlpha"/>
<feOffset dy="1"/>
<feGaussianBlur stdDeviation="12"/>
<feComposite in2="hardAlpha" operator="out"/>
<feColorMatrix type="matrix" values="0 0 0 0 0.356863 0 0 0 0 0.803922 0 0 0 0 0.941176 0 0 0 0.15 0"/>
<feBlend mode="normal" in2="BackgroundImageFix" result="effect1_dropShadow_1_1281"/>
<feBlend mode="normal" in="SourceGraphic" in2="effect1_dropShadow_1_1281" result="shape"/>
</filter>
</defs>
</svg>
